<svg xmlns="http://www.w3.org/2000/svg" data-name="Слой 1" viewBox="0 0 82.55097 104.43669999999999" x="0px" y="0px"><title>Безымянный-112</title><path d="M77.01349,57.87078c1.7204.42118,3.36952-.19643,5.06117-.15286.64893.01672.985.08626,1.16571.76,1.27139,4.73858,2.36814,9.504,1.24326,14.42734a28.77766,28.77766,0,0,1-4.84672,10.23165c-.47147.66372-1.03377,1.26659-1.46967,1.95133-2.15607,3.38685-5.44247,4.7307-9.23628,5.19423-1.20975.14781-2.41364.34413-3.62368.48918a80.43425,80.43425,0,0,1-22.90445-.45142,33.09347,33.09347,0,0,1-11.6554-3.99582A18.40749,18.40749,0,0,1,23.489,78.06961a32.823,32.823,0,0,1-2.99038-16.63583c.03147-.47249.09676-.94381.16839-1.41229a1.22354,1.22354,0,0,1,1.38466-1.15507,11.90121,11.90121,0,0,0,3.7883-.33935c-.05877-.18293-.06158-.28284-.10048-.29975-2.89073-1.25791-4.84209-3.60724-6.9206-5.8399a18.424,18.424,0,0,0-7.85045-4.53314,8.15074,8.15074,0,0,0-2.00615-.07551.64233.64233,0,0,1-.61071-.464.6278.6278,0,0,1,.36349-.65525A27.23266,27.23266,0,0,1,19.28431,42.242a8.01454,8.01454,0,0,1,3.62788.196c.704.22021,1.21259.07359,1.0779-.85994-.67909-4.70647-.23668-9.49982-1.10214-14.19612a6.2981,6.2981,0,0,0-.87124-2.46061c-.439-.65937-.76614-1.39321-1.207-2.21388a1.69584,1.69584,0,0,1,1.93252.97318,11.80332,11.80332,0,0,0,4.3345,3.8928c4.46955,2.63891,6.55743,6.878,7.65447,11.73762.13142.58217.0233,1.24093.64311,1.70473a51.119,51.119,0,0,0,2.50361-12.32825c.13392-1.81044-.50432-3.47492-.87734-5.18938-.08651-.39765-.3453-.82823.0982-1.07421.464-.25735.71228.20982.95986.51524,1.53444,1.893,2.89838,3.92381,4.59967,5.68212.23093.23872.44464.49412.84153.93754.15157-.74225.3125-1.282.36613-1.83228A61.95468,61.95468,0,0,1,46.69724,15.0521a3.31571,3.31571,0,0,0,.084-1.97949c-.17887-.64376-.33111-1.29492-.47122-1.84864.56551-.63843,1.25272,1.57157,1.66939-.261.06173-.27155.62356-.07618.67763.34181.58252,4.50335,2.56114,8.54156,4.18063,12.70334.5826,1.49721.99129,3.06211,1.55605,4.83715,2.78352-4.71212,6.12195-8.71116,8.97095-13.27288,1.05038,1.42888-.15744,2.93464.69822,4.37526,1.21148-2.59661,2.34558-5.02471,3.47729-7.454.65868-1.41388,1.30912-2.83162,1.974-4.24257a.61127.61127,0,0,1,.623-.418c.32189.03589.44871.295.497.56531.57588,3.22156,2.276,6.174,2.69758,9.359.71623,5.41074,1.83583,10.88764.22987,16.36105a11.25987,11.25987,0,0,0-.15854,1.5022,39.43748,39.43748,0,0,1,4.38322-4.33847,59.372,59.372,0,0,1,9.98857-6.23212,3.67576,3.67576,0,0,1,.774-.24663c.67681-.17547.8625.16458.76762.76331a1.119,1.119,0,0,1-.15349.37437,19.81248,19.81248,0,0,0-1.65879,5.19533,53.13013,53.13013,0,0,1-4.33827,11.16766c-.50174.95386-1.03163,1.89286-1.68677,3.09143a34.3864,34.3864,0,0,0,7.03839-1.9244c.437-.18542.86874-.38365,1.30733-.56531.3194-.13237.653-.23862.92346.0882a.6992.6992,0,0,1,.06168.7551,20.22253,20.22253,0,0,1-2.987,5.74695,30.5339,30.5339,0,0,1-6.83231,6.34358A17.86463,17.86463,0,0,1,77.01349,57.87078ZM57.41773,90.24264c3.22768.36153,7.62407-.62933,12.05076-1.22506a10.28845,10.28845,0,0,0,6.50231-3.04643,31.30811,31.30811,0,0,0,4.52155-6.25227,2.64487,2.64487,0,0,0,.32768-2.275,3.11435,3.11435,0,0,1,1.68213-3.52507,1.72052,1.72052,0,0,0,1.034-1.35232c1.03319-4.46139.00462-8.7435-1.09717-13.02158-.20158-.78266-.74127-.78112-1.424-.72371-1.48539.12495-2.97881.168-4.46992.20817-4.26873.11493-8.5386-.10822-12.81049.163-3.3102.21011-6.64863.02989-9.9495.31388-2.31406.19909-4.60676-.2719-6.89682.06213a44.36141,44.36141,0,0,1-7.49869.53782c-.566-.01383-1.20753-.18114-1.52559.62858a.55931.55931,0,0,1-1.002.07121,2.2755,2.2755,0,0,0-2.90839-.66395,5.00122,5.00122,0,0,1-2.00975.06892c-2.96567-.20885-5.91308-.7503-8.91664-.331-.93.12986-1.34748.37671-1.33184,1.32693.02791,1.69528-.01446,3.39168.00915,5.08709a22.53865,22.53865,0,0,0,.94162,6.01191c.16088.5514.3,1.07207,1.09549,1.2691,2.29411.56822,2.72463,1.58321,1.58863,3.63928a1.45689,1.45689,0,0,0-.08452,1.6709,23.702,23.702,0,0,0,3.87055,4.94422,1.312,1.312,0,0,0,1.76877.13361c1.14617-.58933,3.31861.61063,3.25012,1.81059-.06276,1.09995.47783,1.15121,1.191,1.42129C42.04058,89.73782,49.03667,90.3,57.41773,90.24264Zm12.058-79.612c-1.81993,4.14559-3.87926,7.881-5.11916,11.97463a3.70859,3.70859,0,0,0-.118,1.20464A37.94168,37.94168,0,0,1,63.02008,34.06c-.71232,3.02945-1.12873,6.12394-2.1127,9.09713a3.21944,3.21944,0,0,0-.19474,2.56947,5.01306,5.01306,0,0,1,.24279,2.20025,25.34779,25.34779,0,0,0,1.72781,8.31276c.08.20559.15346.5326.62269.32861.20124-6.28093,1.52334-12.44,2.75429-18.61808,1.19046-5.975,2.56-11.91869,3.31187-17.97562.21666-1.74515.54327-3.47915.69484-5.229A6.59344,6.59344,0,0,0,69.4757,10.6306ZM86.77233,27.211c-.5674-.27867-.97371.04613-1.3533.274-1.79969,1.08-3.632,2.11735-5.35577,3.30992-4.32345,2.99115-7.44484,6.86071-8.53034,12.14662a12.72237,12.72237,0,0,1-1.1535,3.24615,21.38462,21.38462,0,0,0-1.79656,6.41551,6.61275,6.61275,0,0,0-.11513,3.63184c2.57489-5.44544,6.33365-9.63445,9.87381-13.97339a45.52744,45.52744,0,0,0,7.69854-12.80734C86.31344,28.72183,86.87156,28.0625,86.77233,27.211ZM71.161,14.95873c-.21253,1.17364-.38318,1.89791-.47048,2.63212-.81716,6.87088-2.36184,13.61163-3.624,20.403-1.11833,6.01755-2.485,11.99962-2.75217,18.15847.42043-.13669.44943-.52153.63868-.78975.87384-1.23836,1.00541-2.79622,1.81573-4.073a37.45981,37.45981,0,0,0,3.76391-8.29575,85.21114,85.21114,0,0,0,2.536-11.71067,15.82548,15.82548,0,0,0,.09113-4.85632c-.27394-2.21726-.4516-4.447-.64027-6.674A15.7862,15.7862,0,0,0,71.161,14.95873ZM47.30067,16.89479a51.23848,51.23848,0,0,0-2.32509,9.25667,16.03487,16.03487,0,0,0,.73629,8.76892C47.40295,39.1175,47.41,43.499,46.88738,47.91161a4.28193,4.28193,0,0,0,.02246,1.60146,29.64521,29.64521,0,0,0,3.26446,6.94617.61542.61542,0,0,0,.6638.35514C49.66458,43.52171,50.109,30.08753,47.30067,16.89479Zm-9.9,41.49748a48.65425,48.65425,0,0,1,1.2523-5.22741A59.13134,59.13134,0,0,0,41.37742,40.4596a25.23784,25.23784,0,0,0-.67654-9.28239c-.38734-1.43845-1.12808-2.7626-1.41288-4.24017-.06727-.349-.08514-.807-.67593-.76031a35.84222,35.84222,0,0,1-1.171,11.49316,56.30144,56.30144,0,0,0-2.16647,12.80962A12.7894,12.7894,0,0,0,37.40068,58.39227ZM41.0981,28.6929c1.92086,5.53614,1.42926,11.111.62968,16.69356A74.86139,74.86139,0,0,1,39.18749,55.205a9.33683,9.33683,0,0,0-.51072,3.152,9.522,9.522,0,0,0,6.634-7.10368c1.22633-5.72442,1.3687-11.452-.96388-16.96575A18.827,18.827,0,0,0,41.0981,28.6929ZM51.89654,55.0376c4.43507-12.65537,3.07946-24.847-2.82448-36.67774C50.74,30.53274,50.74515,42.8304,51.89654,55.0376Zm3.74737.37121c.14978-.403.23964-.52385.23-.63612-.51457-5.99657.7174-11.75817,2.47779-17.41755.846-2.71967,1.61917-5.45889,2.44922-8.182a55.66237,55.66237,0,0,0,1.621-7.96108,2.03077,2.03077,0,0,0-.345-1.96974c-2.07029,3.28976-4.56671,6.08089-6.48432,9.2909a5.56887,5.56887,0,0,0-.71218,4.27316,28.88009,28.88009,0,0,1,.598,5.45222,43.85511,43.85511,0,0,1-.985,11.9219A6.25765,6.25765,0,0,0,55.64391,55.40881ZM12.48884,47.11405c.77012.39606,1.12534.58321,1.48438.76274a18.61851,18.61851,0,0,1,6.658,4.91059c2.51213,3.22128,5.912,4.8804,9.69822,5.95973a8.53842,8.53842,0,0,0,3.55886-.00932,17.1754,17.1754,0,0,1-4.70225-4.65355,19.53226,19.53226,0,0,0-7.57587-5.993C18.83012,46.78835,15.90262,46.72394,12.48884,47.11405ZM24.3712,28.09449c.33567,3.81231.24092,7.66028.51678,11.498a27.082,27.082,0,0,0,7.99921,17.28585,1.37867,1.37867,0,0,0,1.23262.54459c.06936-.61361-.35156-1.00382-.6433-1.41485a13.07344,13.07344,0,0,1-1.67345-3.66962c-1.68017-5.21726-2.48222-10.67135-4.32055-15.84473C26.491,33.70348,25.99626,30.738,24.3712,28.09449Zm1.80465.57568c.65,2.17219,1.1781,4.03894,1.76781,5.886a91.41936,91.41936,0,0,1,3.16555,11.33067,52.26925,52.26925,0,0,0,2.24007,8.00592c.12727.36077.1368,1.01743.822.90352,0-3.73814-.01036-7.45915.00285-11.1801A19.79557,19.79557,0,0,0,30.9073,32.888,9.23658,9.23658,0,0,0,26.17585,28.67017Zm58.32206,6.85489c-.83459,1.143-1.73992,2.24168-2.48966,3.43786a69.96932,69.96932,0,0,1-6.071,7.88963A43.41063,43.41063,0,0,0,70.251,55.24222c-.14115.27846-.64548.59237-.08328,1.03909A38.41107,38.41107,0,0,0,84.49791,35.52506ZM56.84636,53.4036c3.21374-8.21678,6.74264-24.56686,6.20108-29.06041-.48186,1.7926-.947,3.334-1.30745,4.89943-1.07919,4.687-2.92611,9.153-3.95756,13.85234A32.26963,32.26963,0,0,0,56.84636,53.4036Zm30.98043-8.297c-1.505.30991-2.77.50313-3.99544.84032a7.99581,7.99581,0,0,0-3.835,2.10825c-2.01286,2.08154-3.62293,4.55592-6.02489,6.265-.15692.11165-.41451.36714-.17517.6653C79.36889,52.82949,85.20337,48.75712,87.82679,45.1066Zm-37.253,13.39431A24.72116,24.72116,0,0,1,46.59,50.894a13.8509,13.8509,0,0,1-6.42913,8.29148C43.87706,59.22418,47.048,58.61139,50.57376,58.50091ZM25.81948,49.24239l.206-.34785c-.33373-.88247-.69211-1.75654-.99647-2.649-.85284-2.50078-1.22911-2.79386-3.844-2.90275a8.727,8.727,0,0,0-2.8067.333c-1.42556.41262-2.85194.82383-4.26712,1.27-.34149.1077-.8603.081-.84945.87531A18.21127,18.21127,0,0,1,25.81948,49.24239ZM88.022,46.80248A34.01432,34.01432,0,0,1,79.887,53.13606c-3.02,1.58768-6.03009,3.19417-9.08023,4.81135C76.08312,59.19179,85.80532,52.23135,88.022,46.80248ZM59.77231,47.785a32.12856,32.12856,0,0,0-2.062,8.55788,5.08149,5.08149,0,0,0,.20333,1.39388c.06755.36547.27991.63936.67467.61036,1.23438-.09071,2.50883.265,3.8855-.18935C60.6946,54.82278,60.20279,51.36134,59.77231,47.785ZM55.78849,58.30845a28.01959,28.01959,0,0,0-2.17568-4.00564,3.55334,3.55334,0,0,0-.74461,1.98636c-.63768,2.33816-.18663,2.8052,2.15645,2.35527A4.78417,4.78417,0,0,0,55.78849,58.30845Zm11.68285-6.1834c-.70322,1.59271-1.43728,3.17291-2.09,4.78608-.1843.45545-.38173,1.15273.508,1.20437.67327.039,1.40268.07456,1.35585-.98318A40.8761,40.8761,0,0,1,67.47134,52.12505Z" transform="translate(-8.3392 -7.82927)"/><path d="M37.46913,65.84766a1.88,1.88,0,0,1,2.07853-2.1368c.81417-.0257,1.521.126,1.62009,1.08216a2.753,2.753,0,0,1-2.34926,2.61991C37.90049,67.47141,37.4741,66.97678,37.46913,65.84766Z" transform="translate(-8.3392 -7.82927)"/><path d="M28.61479,65.33468a2.06449,2.06449,0,0,1-1.65665,1.996,1.97446,1.97446,0,0,1-2.03643-1.8177c-.04087-.96489.71262-1.62718,1.87985-1.6523A1.59039,1.59039,0,0,1,28.61479,65.33468Z" transform="translate(-8.3392 -7.82927)"/><path d="M33.86715,76.52741A1.35913,1.35913,0,0,1,32.42266,75.176a1.91368,1.91368,0,0,1,2.00415-2.02689c.91938.00811,1.49455.4933,1.49271,1.2592A2.2516,2.2516,0,0,1,33.86715,76.52741Z" transform="translate(-8.3392 -7.82927)"/><path d="M62.73438,75.063a2.1249,2.1249,0,0,1-1.85652,1.85165,1.819,1.819,0,0,1-1.76214-1.63395,1.6088,1.6088,0,0,1,1.56219-1.56443C61.46943,73.68159,62.71645,74.49821,62.73438,75.063Z" transform="translate(-8.3392 -7.82927)"/><path d="M41.13062,86.71794a1.60214,1.60214,0,0,1-1.272-1.76979A1.69392,1.69392,0,0,1,41.75077,83.536c1.0579.0734,1.84921.64883,1.76738,1.28515A3.17107,3.17107,0,0,1,41.13062,86.71794Z" transform="translate(-8.3392 -7.82927)"/><path d="M48.28808,75.46154c-.04111,1.00825-1.50218,2.39218-2.34613,2.26658a1.28569,1.28569,0,0,1-1.10151-1.46226,2.13222,2.13222,0,0,1,2.16227-1.9611C47.79037,74.35233,48.249,74.73862,48.28808,75.46154Z" transform="translate(-8.3392 -7.82927)"/><path d="M69.61417,64.02451c.94228.01306,1.43591.47152,1.41634,1.31559a1.699,1.699,0,0,1-1.80365,1.75164c-.92463-.00343-1.45554-.49049-1.43089-1.3127A1.763,1.763,0,0,1,69.61417,64.02451Z" transform="translate(-8.3392 -7.82927)"/><path d="M68.52262,82.53492c.411.0258.81681.38534.8136,1.132-.004.937-.89369,2.08164-1.60723,2.08249a1.63567,1.63567,0,0,1-1.36563-1.73286C66.421,83.13254,67.23678,82.47138,68.52262,82.53492Z" transform="translate(-8.3392 -7.82927)"/><path d="M80.05329,63.23227a1.39792,1.39792,0,0,1,1.47892,1.35666c.0239.65027-1.26318,1.6862-2.048,1.59186-.86069-.10347-1.07247-.73066-1.01521-1.47972A1.43245,1.43245,0,0,1,80.05329,63.23227Z" transform="translate(-8.3392 -7.82927)"/><path d="M56.6591,64.84617a2.1707,2.1707,0,0,1-1.87458,1.79875c-.85335.026-1.17221-.52318-1.24764-1.26229a1.4321,1.4321,0,0,1,1.2689-1.70344C55.71939,63.61657,56.62256,64.18528,56.6591,64.84617Z" transform="translate(-8.3392 -7.82927)"/><path d="M55.43528,86.38643a1.17654,1.17654,0,0,1-1.20886-1.19252,1.52276,1.52276,0,0,1,1.59808-1.65429c.75439-.00189,1.309.31221,1.37812,1.13084A1.84316,1.84316,0,0,1,55.43528,86.38643Z" transform="translate(-8.3392 -7.82927)"/><path d="M75.518,75.57281a1.55788,1.55788,0,0,1-1.50289,1.655,1.14293,1.14293,0,0,1-1.25289-1.05839A1.38483,1.38483,0,0,1,74.27293,74.665C74.965,74.65756,75.44344,74.91754,75.518,75.57281Z" transform="translate(-8.3392 -7.82927)"/><text x="0" y="98.54936" fill="#000000" font-size="5px" font-weight="bold" font-family="'Helvetica Neue', Helvetica, Arial-Unicode, Arial, Sans-serif">Created by Maria Zamchy</text><text x="0" y="103.54936" fill="#000000" font-size="5px" font-weight="bold" font-family="'Helvetica Neue', Helvetica, Arial-Unicode, Arial, Sans-serif">from the Noun Project</text></svg>